<svg width="24" height="24" viewBox="0 0 24 24" fill="none" xmlns="http://www.w3.org/2000/svg">
    <g clip-path="url(#clip0_3_12)">
        <rect width="24" height="24" rx="8" fill="white" />
        <g clip-path="url(#clip1_3_12)">
            <path
                d="M0 3L0.3 3.2C0.7 3.3 1.3 3.7 2 4.2C2.7 4.7 3.3 5.3 4 5.2C4.7 5 5.3 4 6 3.3C6.7 2.7 7.3 2.3 8 2.7C8.7 3 9.3 4 10 4.2C10.7 4.3 11.3 3.7 12 3.7C12.7 3.7 13.3 4.3 14 4.5C14.7 4.7 15.3 4.3 16 4.3C16.7 4.3 17.3 4.7 18 4.5C18.7 4.3 19.3 3.7 20 3.3C20.7 3 21.3 3 22 2.8C22.7 2.7 23.3 2.3 23.7 2.2L24 2V0H23.7C23.3 0 22.7 0 22 0C21.3 0 20.7 0 20 0C19.3 0 18.7 0 18 0C17.3 0 16.7 0 16 0C15.3 0 14.7 0 14 0C13.3 0 12.7 0 12 0C11.3 0 10.7 0 10 0C9.3 0 8.7 0 8 0C7.3 0 6.7 0 6 0C5.3 0 4.7 0 4 0C3.3 0 2.7 0 2 0C1.3 0 0.7 0 0.3 0H0V3Z"
                fill="#28AFB0" />
            <path
                d="M0 9L0.3 9.5C0.7 10 1.3 11 2 11C2.7 11 3.3 10 4 8.8C4.7 7.7 5.3 6.3 6 6.5C6.7 6.7 7.3 8.3 8 9.7C8.7 11 9.3 12 10 11.8C10.7 11.7 11.3 10.3 12 9.7C12.7 9 13.3 9 14 8.8C14.7 8.7 15.3 8.3 16 9C16.7 9.7 17.3 11.3 18 11.7C18.7 12 19.3 11 20 10.3C20.7 9.7 21.3 9.3 22 8.7C22.7 8 23.3 7 23.7 6.5L24 6V0L23.7 0.2C23.3 0.3 22.7 0.7 22 0.8C21.3 1 20.7 1 20 1.3C19.3 1.7 18.7 2.3 18 2.5C17.3 2.7 16.7 2.3 16 2.3C15.3 2.3 14.7 2.7 14 2.5C13.3 2.3 12.7 1.7 12 1.7C11.3 1.7 10.7 2.3 10 2.2C9.3 2 8.7 1 8 0.7C7.3 0.3 6.7 0.7 6 1.3C5.3 2 4.7 3 4 3.2C3.3 3.3 2.7 2.7 2 2.2C1.3 1.7 0.7 1.3 0.3 1.2L0 1V9Z"
                fill="#1DA4AB" />
            <path
                d="M0 12L0.3 12.5C0.7 13 1.3 14 2 14C2.7 14 3.3 13 4 12.2C4.7 11.3 5.3 10.7 6 11.2C6.7 11.7 7.3 13.3 8 14.2C8.7 15 9.3 15 10 14.8C10.7 14.7 11.3 14.3 12 13.7C12.7 13 13.3 12 14 11.8C14.7 11.7 15.3 12.3 16 13C16.7 13.7 17.3 14.3 18 14.2C18.7 14 19.3 13 20 12.3C20.7 11.7 21.3 11.3 22 10.8C22.7 10.3 23.3 9.7 23.7 9.3L24 9V4L23.7 4.5C23.3 5 22.7 6 22 6.7C21.3 7.3 20.7 7.7 20 8.3C19.3 9 18.7 10 18 9.7C17.3 9.3 16.7 7.7 16 7C15.3 6.3 14.7 6.7 14 6.8C13.3 7 12.7 7 12 7.7C11.3 8.3 10.7 9.7 10 9.8C9.3 10 8.7 9 8 7.7C7.3 6.3 6.7 4.7 6 4.5C5.3 4.3 4.7 5.7 4 6.8C3.3 8 2.7 9 2 9C1.3 9 0.7 8 0.3 7.5L0 7V12Z"
                fill="#1499A5" />
            <path
                d="M0 14L0.3 14.5C0.7 15 1.3 16 2 16.2C2.7 16.3 3.3 15.7 4 14.8C4.7 14 5.3 13 6 13.2C6.7 13.3 7.3 14.7 8 15.7C8.7 16.7 9.3 17.3 10 17.2C10.7 17 11.3 16 12 15.3C12.7 14.7 13.3 14.3 14 14.3C14.7 14.3 15.3 14.7 16 15C16.7 15.3 17.3 15.7 18 15.5C18.7 15.3 19.3 14.7 20 14.2C20.7 13.7 21.3 13.3 22 13C22.7 12.7 23.3 12.3 23.7 12.2L24 12V7L23.7 7.3C23.3 7.7 22.7 8.3 22 8.8C21.3 9.3 20.7 9.7 20 10.3C19.3 11 18.7 12 18 12.2C17.3 12.3 16.7 11.7 16 11C15.3 10.3 14.7 9.7 14 9.8C13.3 10 12.7 11 12 11.7C11.3 12.3 10.7 12.7 10 12.8C9.3 13 8.7 13 8 12.2C7.3 11.3 6.7 9.7 6 9.2C5.3 8.7 4.7 9.3 4 10.2C3.3 11 2.7 12 2 12C1.3 12 0.7 11 0.3 10.5L0 10V14Z"
                fill="#0F8E9F" />
            <path
                d="M0 16L0.3 16.5C0.7 17 1.3 18 2 18C2.7 18 3.3 17 4 16C4.7 15 5.3 14 6 14.3C6.7 14.7 7.3 16.3 8 17.3C8.7 18.3 9.3 18.7 10 18.5C10.7 18.3 11.3 17.7 12 17.2C12.7 16.7 13.3 16.3 14 16C14.7 15.7 15.3 15.3 16 15.8C16.7 16.3 17.3 17.7 18 17.8C18.7 18 19.3 17 20 16C20.7 15 21.3 14 22 13.7C22.7 13.3 23.3 13.7 23.7 13.8L24 14V10L23.7 10.2C23.3 10.3 22.7 10.7 22 11C21.3 11.3 20.7 11.7 20 12.2C19.3 12.7 18.7 13.3 18 13.5C17.3 13.7 16.7 13.3 16 13C15.3 12.7 14.7 12.3 14 12.3C13.3 12.3 12.7 12.7 12 13.3C11.3 14 10.7 15 10 15.2C9.3 15.3 8.7 14.7 8 13.7C7.3 12.7 6.7 11.3 6 11.2C5.3 11 4.7 12 4 12.8C3.3 13.7 2.7 14.3 2 14.2C1.3 14 0.7 13 0.3 12.5L0 12V16Z"
                fill="#0E8497" />
            <path
                d="M0 19H0.3C0.7 19 1.3 19 2 18.8C2.7 18.7 3.3 18.3 4 17.7C4.7 17 5.3 16 6 16.2C6.7 16.3 7.3 17.7 8 18.8C8.7 20 9.3 21 10 21C10.7 21 11.3 20 12 19.3C12.7 18.7 13.3 18.3 14 18C14.7 17.7 15.3 17.3 16 17.7C16.7 18 17.3 19 18 19.3C18.7 19.7 19.3 19.3 20 18.7C20.7 18 21.3 17 22 16.5C22.7 16 23.3 16 23.7 16H24V12L23.7 11.8C23.3 11.7 22.7 11.3 22 11.7C21.3 12 20.7 13 20 14C19.3 15 18.7 16 18 15.8C17.3 15.7 16.7 14.3 16 13.8C15.3 13.3 14.7 13.7 14 14C13.3 14.3 12.7 14.7 12 15.2C11.3 15.7 10.7 16.3 10 16.5C9.3 16.7 8.7 16.3 8 15.3C7.3 14.3 6.7 12.7 6 12.3C5.3 12 4.7 13 4 14C3.3 15 2.7 16 2 16C1.3 16 0.7 15 0.3 14.5L0 14V19Z"
                fill="#117990" />
            <path
                d="M0 22L0.3 22.2C0.7 22.3 1.3 22.7 2 23.2C2.7 23.7 3.3 24.3 4 24.2C4.7 24 5.3 23 6 22.8C6.7 22.7 7.3 23.3 8 23.7C8.7 24 9.3 24 10 23.7C10.7 23.3 11.3 22.7 12 22.3C12.7 22 13.3 22 14 21.8C14.7 21.7 15.3 21.3 16 21.5C16.7 21.7 17.3 22.3 18 22.7C18.7 23 19.3 23 20 22.7C20.7 22.3 21.3 21.7 22 21.7C22.7 21.7 23.3 22.3 23.7 22.7L24 23V14H23.7C23.3 14 22.7 14 22 14.5C21.3 15 20.7 16 20 16.7C19.3 17.3 18.7 17.7 18 17.3C17.3 17 16.7 16 16 15.7C15.3 15.3 14.7 15.7 14 16C13.3 16.3 12.7 16.7 12 17.3C11.3 18 10.7 19 10 19C9.3 19 8.7 18 8 16.8C7.3 15.7 6.7 14.3 6 14.2C5.3 14 4.7 15 4 15.7C3.3 16.3 2.7 16.7 2 16.8C1.3 17 0.7 17 0.3 17H0V22Z"
                fill="#156E87" />
            <path
                d="M0 25H0.3C0.7 25 1.3 25 2 25C2.7 25 3.3 25 4 25C4.7 25 5.3 25 6 25C6.7 25 7.3 25 8 25C8.7 25 9.3 25 10 25C10.7 25 11.3 25 12 25C12.7 25 13.3 25 14 25C14.7 25 15.3 25 16 25C16.7 25 17.3 25 18 25C18.7 25 19.3 25 20 25C20.7 25 21.3 25 22 25C22.7 25 23.3 25 23.7 25H24V21L23.7 20.7C23.3 20.3 22.7 19.7 22 19.7C21.3 19.7 20.7 20.3 20 20.7C19.3 21 18.7 21 18 20.7C17.3 20.3 16.7 19.7 16 19.5C15.3 19.3 14.7 19.7 14 19.8C13.3 20 12.7 20 12 20.3C11.3 20.7 10.7 21.3 10 21.7C9.3 22 8.7 22 8 21.7C7.3 21.3 6.7 20.7 6 20.8C5.3 21 4.7 22 4 22.2C3.3 22.3 2.7 21.7 2 21.2C1.3 20.7 0.7 20.3 0.3 20.2L0 20V25Z"
                fill="#19647E" />
            <path
                d="M9.322 17.216C9.322 17.6533 9.018 17.872 8.41 17.872C7.578 17.872 6.70333 17.44 5.786 16.576C4.87933 15.712 4.234 14.8107 3.85 13.872C3.67933 14.384 3.562 14.7307 3.498 14.912C3.434 15.0933 3.338 15.3813 3.21 15.776C3.082 16.1707 2.98067 16.464 2.906 16.656C2.842 16.848 2.76733 17.0507 2.682 17.264C2.522 17.6693 2.36733 17.872 2.218 17.872C1.97267 17.872 1.674 17.6693 1.322 17.264C0.980667 16.848 0.81 16.512 0.81 16.256C0.81 16 0.932667 15.5253 1.178 14.832C1.90333 12.7093 2.31933 10.7733 2.426 9.024C2.22333 8.864 2.042 8.64 1.882 8.352C1.722 8.064 1.642 7.824 1.642 7.632C1.642 7.312 2.05267 6.976 2.874 6.624C3.706 6.272 4.66067 6.096 5.738 6.096C6.826 6.096 7.73267 6.352 8.458 6.864C9.18333 7.376 9.546 8.04267 9.546 8.864C9.546 9.472 9.36467 10.0587 9.002 10.624C8.65 11.1787 8.26067 11.616 7.834 11.936C7.418 12.2453 7.02867 12.528 6.666 12.784C6.314 13.04 6.138 13.2053 6.138 13.28C6.138 13.536 6.22333 13.7813 6.394 14.016C6.56467 14.24 6.80467 14.5067 7.114 14.816C7.42333 15.1147 7.69 15.3707 7.914 15.584C8.138 15.7867 8.31933 15.9573 8.458 16.096C8.60733 16.2347 8.75133 16.3787 8.89 16.528C9.178 16.8053 9.322 17.0347 9.322 17.216ZM7.082 9.024C7.082 8.576 6.64467 8.352 5.77 8.352C5.354 8.352 4.858 8.46933 4.282 8.704C4.54867 9.10933 4.682 9.48267 4.682 9.824C4.682 10.4427 4.59667 11.1253 4.426 11.872C4.54333 11.7867 4.762 11.6373 5.082 11.424C5.402 11.2 5.64733 11.024 5.818 10.896C5.99933 10.7573 6.202 10.5813 6.426 10.368C6.86333 9.952 7.082 9.504 7.082 9.024ZM18.2434 6C18.5527 6 18.894 6.16 19.2674 6.48C19.6514 6.8 19.8434 7.06133 19.8434 7.264C19.8434 7.936 19.6834 9.104 19.3634 10.768C19.054 12.4213 18.654 14.0053 18.1634 15.52C17.6727 17.0347 17.23 17.792 16.8354 17.792C16.6754 17.792 16.4674 17.7067 16.2114 17.536C15.9554 17.3547 15.7847 17.1467 15.6994 16.912C15.614 16.6667 15.4487 16.1653 15.2034 15.408C14.638 13.6693 14.1047 12.2293 13.6034 11.088C13.5287 11.408 13.4274 11.8613 13.2994 12.448C13.182 13.0347 13.086 13.4987 13.0114 13.84C12.9367 14.1707 12.846 14.576 12.7394 15.056C12.6327 15.5253 12.5367 15.8987 12.4514 16.176C12.3767 16.4533 12.2914 16.7307 12.1954 17.008C12.0247 17.5307 11.8647 17.792 11.7154 17.792C11.502 17.792 11.2247 17.6 10.8834 17.216C10.542 16.8213 10.3714 16.4853 10.3714 16.208C10.3714 15.92 10.6754 14.432 11.2834 11.744C11.902 9.056 12.238 7.37067 12.2914 6.688C12.3234 6.28267 12.446 6.08 12.6594 6.08C12.8407 6.08 13.07 6.18667 13.3474 6.4C13.6354 6.61333 13.8807 6.87467 14.0834 7.184C14.2967 7.48267 14.6754 8.46933 15.2194 10.144C15.7634 11.8187 16.1954 13.0187 16.5154 13.744C16.9314 12.5067 17.3154 10.64 17.6674 8.144C17.806 7.152 17.8967 6.54933 17.9394 6.336C17.982 6.112 18.0834 6 18.2434 6ZM22.2571 18.08C21.9158 18.08 21.5318 17.872 21.1051 17.456C20.6891 17.04 20.4811 16.6827 20.4811 16.384C20.4811 16.0747 20.6145 15.7707 20.8811 15.472C21.1478 15.1627 21.4145 15.008 21.6811 15.008C21.9585 15.008 22.2678 15.3067 22.6091 15.904C22.9505 16.5013 23.1211 16.9547 23.1211 17.264C23.1211 17.424 23.0198 17.6 22.8171 17.792C22.6251 17.984 22.4385 18.08 22.2571 18.08Z"
                fill="#EEE5E5" fill-opacity="0.95" />
        </g>
    </g>
    <defs>
        <clipPath id="clip0_3_12">
            <rect width="24" height="24" rx="8" fill="white" />
        </clipPath>
        <clipPath id="clip1_3_12">
            <rect width="24" height="24" fill="white" />
        </clipPath>
    </defs>
</svg>
    